External Loads File
version=1
nRows=54
nColumns=13
Range=5.000000e-03-10 seconds
endheader
time 	forceRightX 	forceRightY 	forceRightZ 	pointRightX 	pointRightY 	pointRightZ 	forceLeftX 	forceLeftY 	forceLeftZ 	pointLeftX 	pointLeftY 	pointLeftZ 		
2.505000 -57.493921 341.004771 -0.000000 0.395977 0.463937 -0.124897 87.605969 0.602234 -0.000000 0.204083 0.188814 -0.363404
2.510000 -58.756611 368.526442 -0.000000 0.401018 0.457149 -0.124726 87.327217 -0.699553 -0.000000 0.197599 0.195278 -0.363362
2.515000 -60.182127 393.296120 -0.000000 0.406666 0.449871 -0.124815 88.240704 -0.319781 -0.000000 0.191442 0.202156 -0.363282
2.520000 -62.747245 414.275515 -0.000000 0.411894 0.442236 -0.125197 90.346705 1.711196 -0.000000 0.185655 0.209415 -0.363207
2.525000 -66.723377 430.910080 -0.000000 0.416351 0.434240 -0.125164 93.590989 5.098343 -0.000000 0.180192 0.216896 -0.363260
2.530000 -70.945036 443.283025 -0.000000 0.420986 0.425812 -0.125584 97.904158 9.176584 -0.000000 0.175134 0.224687 -0.363310
2.535000 -75.460141 451.689105 -0.000000 0.425190 0.416826 -0.125644 103.170345 13.487613 -0.000000 0.170494 0.232847 -0.363353
2.540000 -81.353336 456.541649 -0.000000 0.428666 0.408149 -0.125703 109.149355 17.800903 -0.000000 0.166295 0.241272 -0.363424
2.545000 -86.849452 458.928749 -0.000000 0.432432 0.399338 -0.125777 115.615621 21.271336 -0.000000 0.162447 0.250067 -0.363460
2.550000 -91.662742 459.779287 -0.000000 0.436037 0.389813 -0.125740 122.243435 23.476419 -0.000000 0.159129 0.259041 -0.363525
2.555000 -96.590490 459.792420 -0.000000 0.439316 0.380425 -0.125688 128.595032 24.424774 -0.000000 0.156246 0.268295 -0.363621
2.560000 -101.372610 459.830330 -0.000000 0.441889 0.370827 -0.125639 134.287216 23.994754 -0.000000 0.153904 0.277719 -0.363647
2.565000 -105.540073 460.740388 -0.000000 0.444017 0.360972 -0.125628 139.009926 22.080523 -0.000000 0.152149 0.287350 -0.363621
2.570000 -108.917343 463.178681 -0.000000 0.445761 0.350892 -0.125548 142.514920 18.708285 -0.000000 0.150864 0.297173 -0.363593
2.575000 -112.276764 467.400293 -0.000000 0.446889 0.340982 -0.125528 144.607228 14.256015 -0.000000 0.150190 0.307031 -0.363553
2.580000 -114.731839 473.880565 -0.000000 0.447561 0.330915 -0.125434 145.246373 8.639188 -0.000000 0.150097 0.317012 -0.363489
2.585000 -116.445915 482.694754 -0.000000 0.447684 0.320777 -0.125374 144.410244 2.114767 -0.000000 0.150567 0.326968 -0.363427
2.590000 -117.216158 493.835731 -0.000000 0.447594 0.310580 -0.125164 142.111246 -5.168516 -0.000000 0.151661 0.336897 -0.363329
2.595000 -116.713524 507.124744 -0.000000 0.446508 0.300424 -0.125339 138.363192 -13.086491 -0.000000 0.153273 0.346853 -0.363208
2.600000 -113.560895 522.417699 -0.000000 0.444978 0.289395 -0.125813 133.154891 -21.760845 -0.000000 0.155048 0.356647 -0.362307
2.605000 -110.109002 538.595634 -0.000000 0.443281 0.279306 -0.125686 126.657542 -30.344304 -0.000000 0.157842 0.366449 -0.362286
2.610000 -105.248978 555.234701 -0.000000 0.440896 0.269715 -0.126201 118.976655 -38.951271 -0.000000 0.161139 0.376298 -0.362255
2.615000 -99.970564 571.432645 -0.000000 0.439054 0.260254 -0.127088 110.359092 -47.234121 -0.000000 0.165040 0.385612 -0.362248
2.620000 -91.982161 586.840962 -0.000000 0.435967 0.250916 -0.127448 100.830126 -55.530530 -0.000000 0.169419 0.394937 -0.362159
2.625000 -82.168294 600.504532 -0.000000 0.432672 0.241444 -0.126830 90.689845 -63.554643 -0.000000 0.174247 0.403933 -0.361996
2.630000 -71.897673 611.528351 -0.000000 0.428823 0.232913 -0.126581 80.354294 -71.076146 -0.000000 0.179580 0.412617 -0.362041
2.635000 -59.478930 619.547681 -0.000000 0.424374 0.224401 -0.126524 69.877182 -78.330874 -0.000000 0.185246 0.421213 -0.361976
2.640000 -47.100604 623.921358 -0.000000 0.419509 0.216271 -0.126527 59.712750 -85.040694 -0.000000 0.190777 0.429381 -0.361567
2.645000 -29.810911 624.708234 -0.000000 0.412526 0.208371 -0.125546 49.293694 -91.610817 -0.000000 0.197828 0.437282 -0.362627
2.650000 -15.881004 621.244572 -0.000000 0.406959 0.201040 -0.125607 39.851970 -97.278661 -0.000000 0.204549 0.444856 -0.361631
2.655000 -2.195983 613.705634 -0.000000 0.401256 0.193889 -0.125659 30.981789 -102.335393 -0.000000 0.211501 0.451955 -0.361889
2.660000 12.476886 601.987947 -0.000000 0.394840 0.187197 -0.125539 22.421649 -106.791125 -0.000000 0.218975 0.458735 -0.362200
2.665000 25.879947 585.986957 -0.000000 0.388263 0.180894 -0.125460 14.466832 -110.447873 -0.000000 0.226100 0.465001 -0.361820
2.670000 40.122309 565.530774 -0.000000 0.381280 0.175014 -0.125666 6.617603 -113.204857 -0.000000 0.233849 0.471039 -0.361797
2.675000 53.537950 540.700856 -0.000000 0.374081 0.169770 -0.125223 -0.929796 -114.814043 -0.000000 0.241731 0.476416 -0.361860
2.680000 66.602797 511.672347 -0.000000 0.366561 0.165125 -0.125095 -8.380760 -115.085062 -0.000000 0.249951 0.481295 -0.362118
2.685000 78.713482 478.949181 -0.000000 0.358705 0.160898 -0.125218 -15.706770 -113.879175 -0.000000 0.258192 0.485712 -0.362237
2.690000 89.774748 443.192692 -0.000000 0.350535 0.157339 -0.125227 -22.974330 -111.145664 -0.000000 0.266799 0.489324 -0.362765
2.695000 98.897924 405.348598 -0.000000 0.342264 0.154095 -0.125187 -30.019406 -106.973919 -0.000000 0.275274 0.492353 -0.362999
2.700000 106.267002 366.176940 -0.000000 0.333771 0.151677 -0.125235 -36.893527 -101.490180 -0.000000 0.283808 0.494906 -0.363269
2.705000 111.702719 326.457377 -0.000000 0.325192 0.149695 -0.125245 -43.517834 -94.891130 -0.000000 0.292333 0.496749 -0.363469
2.710000 115.277016 286.814673 -0.000000 0.316522 0.148409 -0.125214 -49.864018 -87.362547 -0.000000 0.300830 0.497930 -0.363793
2.715000 117.028964 247.774700 -0.000000 0.307804 0.147632 -0.125151 -55.903847 -79.057988 -0.000000 0.309196 0.498581 -0.364112
2.720000 117.184647 209.709056 -0.000000 0.299166 0.147532 -0.125230 -61.683883 -70.021580 -0.000000 0.317670 0.498447 -0.364447
2.725000 115.717886 173.119823 -0.000000 0.290423 0.147899 -0.125099 -67.182859 -60.290476 -0.000000 0.325744 0.497907 -0.364720
2.730000 112.954627 138.343044 -0.000000 0.281630 0.148929 -0.125161 -72.530598 -49.723133 -0.000000 0.333599 0.496666 -0.365206
2.735000 109.131950 105.730976 -0.000000 0.272835 0.150503 -0.125251 -77.878674 -38.059813 -0.000000 0.341395 0.494764 -0.365396
2.740000 104.256559 75.864941 -0.000000 0.264432 0.152663 -0.125323 -83.331363 -25.102520 -0.000000 0.348806 0.492101 -0.365671
2.745000 98.699193 48.966912 -0.000000 0.256020 0.155450 -0.125278 -89.140257 -10.341469 -0.000000 0.355907 0.488768 -0.365956
2.750000 92.657881 25.463328 -0.000000 0.247810 0.158595 -0.125068 -95.485687 6.585262 -0.000000 0.362767 0.484688 -0.366148
2.755000 86.420819 5.621334 -0.000000 0.239538 0.162419 -0.125575 -102.522188 26.088876 -0.000000 0.369329 0.480064 -0.366479
2.760000 80.289915 -10.127916 -0.000000 0.231985 0.166688 -0.125152 -110.455217 48.109544 -0.000000 0.375493 0.475021 -0.366842
2.765000 74.587429 -22.032254 -0.000000 0.224469 0.171410 -0.125186 -119.268741 73.009921 -0.000000 0.381404 0.468966 -0.367182
2.770000 69.592241 -30.166870 -0.000000 0.217315 0.176693 -0.125087 -129.021447 100.468349 -0.000000 0.387056 0.462403 -0.367596
